<?xml version="1.0" encoding="UTF-8" standalone="no"?>
<!DOCTYPE svg PUBLIC "-//W3C//DTD SVG 1.1//EN"
 "http://www.w3.org/Graphics/SVG/1.1/DTD/svg11.dtd">
<!-- Generated by graphviz version 6.0.2 (20221011.1828)
 -->
<!-- Title: dependency&#45;cruiser output Pages: 1 -->
<svg width="327pt" height="230pt"
 viewBox="0.00 0.00 327.00 230.00" xmlns="http://www.w3.org/2000/svg" xmlns:xlink="http://www.w3.org/1999/xlink">
<g id="graph0" class="graph" transform="scale(1 1) rotate(0) translate(4 226)">
<title>dependency&#45;cruiser output</title>
<polygon fill="white" stroke="none" points="-4,4 -4,-226 323,-226 323,4 -4,4"/>
<g id="clust1" class="cluster">
<title>cluster_node_modules</title>
<path fill="#ffffff" stroke="black" stroke-width="2" d="M248,-18C248,-18 304,-18 304,-18 310,-18 316,-24 316,-30 316,-30 316,-58 316,-58 316,-64 310,-70 304,-70 304,-70 248,-70 248,-70 242,-70 236,-64 236,-58 236,-58 236,-30 236,-30 236,-24 242,-18 248,-18"/>
<text text-anchor="middle" x="276" y="-58.8" font-family="Helvetica,sans-Serif" font-weight="bold" font-size="9.00">node_modules</text>
</g>
<g id="clust2" class="cluster">
<title>cluster_src</title>
<path fill="#ffffff" stroke="black" stroke-width="2" d="M20,-8C20,-8 216,-8 216,-8 222,-8 228,-14 228,-20 228,-20 228,-202 228,-202 228,-208 222,-214 216,-214 216,-214 20,-214 20,-214 14,-214 8,-208 8,-202 8,-202 8,-20 8,-20 8,-14 14,-8 20,-8"/>
<text text-anchor="middle" x="118" y="-202.8" font-family="Helvetica,sans-Serif" font-weight="bold" font-size="9.00">src</text>
</g>
<g id="clust3" class="cluster">
<title>cluster_src/app</title>
<path fill="#ffffff" stroke="black" stroke-width="2" d="M90,-16C90,-16 207.5,-16 207.5,-16 213.5,-16 219.5,-22 219.5,-28 219.5,-28 219.5,-86 219.5,-86 219.5,-92 213.5,-98 207.5,-98 207.5,-98 90,-98 90,-98 84,-98 78,-92 78,-86 78,-86 78,-28 78,-28 78,-22 84,-16 90,-16"/>
<text text-anchor="middle" x="148.75" y="-86.8" font-family="Helvetica,sans-Serif" font-weight="bold" font-size="9.00">app</text>
</g>
<g id="clust4" class="cluster">
<title>cluster_src/entities</title>
<path fill="#ffffff" stroke="black" stroke-width="2" d="M161,-106C161,-106 208,-106 208,-106 214,-106 220,-112 220,-118 220,-118 220,-176 220,-176 220,-182 214,-188 208,-188 208,-188 161,-188 161,-188 155,-188 149,-182 149,-176 149,-176 149,-118 149,-118 149,-112 155,-106 161,-106"/>
<text text-anchor="middle" x="184.5" y="-176.8" font-family="Helvetica,sans-Serif" font-weight="bold" font-size="9.00">entities</text>
</g>
<!-- node_modules/pixi.js -->
<g id="node1" class="node">
<title>node_modules/pixi.js</title>
<g id="a_node1"><a xlink:href="node_modules/pixi.js" xlink:title="pixi.js">
<polygon fill="#c40b0a" fill-opacity="0.101961" stroke="black" points="303,-44 251,-44 249,-42 249,-26 301,-26 303,-28 303,-44"/>
<polyline fill="none" stroke="black" points="301,-42 249,-42"/>
<polyline fill="none" stroke="black" points="301,-42 301,-26"/>
<polyline fill="none" stroke="black" points="301,-42 303,-44"/>
<text text-anchor="start" x="264" y="-32.8" font-family="Helvetica,sans-Serif" font-size="9.00" fill="#c40b0a">pixi.js</text>
</a>
</g>
</g>
<!-- src/app/App.scss -->
<g id="node2" class="node">
<title>src/app/App.scss</title>
<g id="a_node2"><a xlink:href="src/app/App.scss" xlink:title="App.scss">
<path fill="#ffffcc" stroke="black" d="M205.5,-72C205.5,-72 163.5,-72 163.5,-72 160.5,-72 157.5,-69 157.5,-66 157.5,-66 157.5,-60 157.5,-60 157.5,-57 160.5,-54 163.5,-54 163.5,-54 205.5,-54 205.5,-54 208.5,-54 211.5,-57 211.5,-60 211.5,-60 211.5,-66 211.5,-66 211.5,-69 208.5,-72 205.5,-72"/>
<text text-anchor="start" x="166" y="-60.8" font-family="Helvetica,sans-Serif" font-size="9.00">App.scss</text>
</a>
</g>
</g>
<!-- src/app/App.ts -->
<g id="node3" class="node">
<title>src/app/App.ts</title>
<g id="a_node3"><a xlink:href="src/app/App.ts" xlink:title="App.ts">
<path fill="#ddfeff" stroke="black" d="M134.5,-72C134.5,-72 92.5,-72 92.5,-72 89.5,-72 86.5,-69 86.5,-66 86.5,-66 86.5,-60 86.5,-60 86.5,-57 89.5,-54 92.5,-54 92.5,-54 134.5,-54 134.5,-54 137.5,-54 140.5,-57 140.5,-60 140.5,-60 140.5,-66 140.5,-66 140.5,-69 137.5,-72 134.5,-72"/>
<text text-anchor="start" x="100.5" y="-60.8" font-family="Helvetica,sans-Serif" font-size="9.00">App.ts</text>
</a>
</g>
</g>
<!-- src/app/App.ts&#45;&gt;node_modules/pixi.js -->
<g id="edge3" class="edge">
<title>src/app/App.ts&#45;&gt;node_modules/pixi.js</title>
<path fill="none" stroke="#000000" stroke-opacity="0.200000" d="M132.39,-53.98C137.63,-51.69 143.44,-49.46 149,-48 179.98,-39.87 216.5,-36.79 242.22,-35.63"/>
<polygon fill="#000000" fill-opacity="0.200000" stroke="#000000" stroke-opacity="0.200000" points="242.61,-37.72 248.52,-35.38 242.44,-33.52 242.61,-37.72"/>
</g>
<!-- src/app/App.ts&#45;&gt;src/app/App.scss -->
<g id="edge2" class="edge">
<title>src/app/App.ts&#45;&gt;src/app/App.scss</title>
<path fill="none" stroke="#000000" stroke-width="2" stroke-opacity="0.200000" d="M140.59,-63C144.11,-63 147.75,-63 151.36,-63"/>
<polygon fill="#000000" fill-opacity="0.200000" stroke="#000000" stroke-width="2" stroke-opacity="0.200000" points="151.38,-65.1 157.38,-63 151.38,-60.9 151.38,-65.1"/>
</g>
<!-- src/entities/Entity.ts -->
<g id="node4" class="node">
<title>src/entities/Entity.ts</title>
<g id="a_node4"><a xlink:href="src/entities/Entity.ts" xlink:title="Entity.ts">
<path fill="#ddfeff" stroke="black" d="M205.5,-162C205.5,-162 163.5,-162 163.5,-162 160.5,-162 157.5,-159 157.5,-156 157.5,-156 157.5,-150 157.5,-150 157.5,-147 160.5,-144 163.5,-144 163.5,-144 205.5,-144 205.5,-144 208.5,-144 211.5,-147 211.5,-150 211.5,-150 211.5,-156 211.5,-156 211.5,-159 208.5,-162 205.5,-162"/>
<text text-anchor="start" x="168.5" y="-150.8" font-family="Helvetica,sans-Serif" font-size="9.00">Entity.ts</text>
</a>
</g>
</g>
<!-- src/app/App.ts&#45;&gt;src/entities/Entity.ts -->
<g id="edge1" class="edge">
<title>src/app/App.ts&#45;&gt;src/entities/Entity.ts</title>
<path fill="none" stroke="#000000" stroke-width="2" stroke-opacity="0.200000" d="M116.43,-72.07C120.17,-87.54 129.75,-119.15 149,-138 149.99,-138.97 151.04,-139.87 152.16,-140.73"/>
<polygon fill="#000000" fill-opacity="0.200000" stroke="#000000" stroke-width="2" stroke-opacity="0.200000" points="151.15,-142.58 157.31,-144.13 153.46,-139.07 151.15,-142.58"/>
</g>
<!-- src/entities/Entity.ts&#45;&gt;node_modules/pixi.js -->
<g id="edge5" class="edge">
<title>src/entities/Entity.ts&#45;&gt;node_modules/pixi.js</title>
<path fill="none" stroke="#000000" stroke-opacity="0.200000" d="M211.59,-147.47C217.5,-145.27 223.38,-142.23 228,-138 254.27,-113.97 266.89,-72.38 272.03,-50.11"/>
<polygon fill="#000000" fill-opacity="0.200000" stroke="#000000" stroke-opacity="0.200000" points="274.11,-50.43 273.34,-44.12 270.01,-49.53 274.11,-50.43"/>
</g>
<!-- src/app/ResourceManager.ts -->
<g id="node5" class="node">
<title>src/app/ResourceManager.ts</title>
<g id="a_node5"><a xlink:href="src/app/ResourceManager.ts" xlink:title="ResourceManager.ts">
<path fill="#ddfeff" stroke="black" d="M135,-42C135,-42 92,-42 92,-42 89,-42 86,-39 86,-36 86,-36 86,-30 86,-30 86,-27 89,-24 92,-24 92,-24 135,-24 135,-24 138,-24 141,-27 141,-30 141,-30 141,-36 141,-36 141,-39 138,-42 135,-42"/>
<text text-anchor="start" x="94" y="-30.8" font-family="Helvetica,sans-Serif" font-size="9.00">ResourceManager.ts</text>
</a>
</g>
</g>
<!-- src/app/ResourceManager.ts&#45;&gt;node_modules/pixi.js -->
<g id="edge4" class="edge">
<title>src/app/ResourceManager.ts&#45;&gt;node_modules/pixi.js</title>
<path fill="none" stroke="#000000" stroke-opacity="0.200000" d="M141.14,-26.19C143.78,-25.71 146.43,-25.29 149,-25 183.88,-21.01 193.08,-21.33 228,-25 232.78,-25.5 237.8,-26.29 242.69,-27.2"/>
<polygon fill="#000000" fill-opacity="0.200000" stroke="#000000" stroke-opacity="0.200000" points="242.51,-29.3 248.81,-28.41 243.33,-25.18 242.51,-29.3"/>
</g>
<!-- src/entities/Person.ts -->
<g id="node6" class="node">
<title>src/entities/Person.ts</title>
<g id="a_node6"><a xlink:href="src/entities/Person.ts" xlink:title="no&#45;orphans">
<path fill="#ccffcc" stroke="orange" d="M206,-132C206,-132 163,-132 163,-132 160,-132 157,-129 157,-126 157,-126 157,-120 157,-120 157,-117 160,-114 163,-114 163,-114 206,-114 206,-114 209,-114 212,-117 212,-120 212,-120 212,-126 212,-126 212,-129 209,-132 206,-132"/>
<text text-anchor="start" x="165" y="-120.8" font-family="Helvetica,sans-Serif" font-size="9.00" fill="orange">Person.ts</text>
</a>
</g>
</g>
<!-- src/index.ts -->
<g id="node7" class="node">
<title>src/index.ts</title>
<g id="a_node7"><a xlink:href="src/index.ts" xlink:title="index.ts">
<path fill="#ddfeff" stroke="black" d="M64,-72C64,-72 22,-72 22,-72 19,-72 16,-69 16,-66 16,-66 16,-60 16,-60 16,-57 19,-54 22,-54 22,-54 64,-54 64,-54 67,-54 70,-57 70,-60 70,-60 70,-66 70,-66 70,-69 67,-72 64,-72"/>
<text text-anchor="start" x="27" y="-60.8" font-family="Helvetica,sans-Serif" font-size="9.00">index.ts</text>
</a>
</g>
</g>
<!-- src/index.ts&#45;&gt;src/app/App.ts -->
<g id="edge6" class="edge">
<title>src/index.ts&#45;&gt;src/app/App.ts</title>
<path fill="none" stroke="#000000" stroke-width="2" stroke-opacity="0.200000" d="M70.29,-63C73.59,-63 77,-63 80.37,-63"/>
<polygon fill="#000000" fill-opacity="0.200000" stroke="#000000" stroke-width="2" stroke-opacity="0.200000" points="80.4,-65.1 86.4,-63 80.4,-60.9 80.4,-65.1"/>
</g>
</g>
</svg>
